<?xml version="1.0" standalone="no"?>
<!DOCTYPE svg PUBLIC "-//W3C//DTD SVG 20010904//EN"
 "http://www.w3.org/TR/2001/REC-SVG-20010904/DTD/svg10.dtd">
<svg version="1.0" xmlns="http://www.w3.org/2000/svg"
 width="180.000000pt" height="180.000000pt" viewBox="0 0 180.000000 180.000000"
 preserveAspectRatio="xMidYMid meet">

<g transform="translate(0.000000,180.000000) scale(0.100000,-0.100000)"
fill="#000000" stroke="none">
<path d="M280 1053 c0 -825 -5 -772 83 -849 57 -50 101 -64 204 -64 156 0 245
-29 305 -100 40 -46 51 -49 66 -16 14 32 68 72 123 92 27 9 97 18 179 23 123
6 140 9 182 34 51 29 77 62 108 129 19 41 19 70 20 761 0 394 -2 717 -5 717
-2 0 -38 -24 -79 -54 -92 -66 -148 -86 -243 -86 -88 0 -145 20 -242 84 l-70
47 -64 -45 c-101 -69 -165 -89 -267 -84 -93 5 -146 26 -231 90 -24 19 -50 37
-56 42 -10 6 -13 -141 -13 -721z m682 651 c27 -20 75 -47 106 -60 l57 -23 3
-160 2 -161 -220 0 -220 0 0 158 0 157 74 33 c40 18 88 46 107 62 19 16 36 29
38 30 2 0 26 -16 53 -36z m58 -709 l5 -110 105 -1 105 0 3 -107 3 -107 -111 0
-110 0 0 -115 0 -115 -110 0 -110 0 0 115 0 115 -110 0 -111 0 3 107 3 107
108 -3 107 -3 0 111 0 110 83 3 c148 5 131 18 137 -107z"/>
</g>
</svg>
