<?xml version="1.0" standalone="no"?>
<!DOCTYPE svg PUBLIC "-//W3C//DTD SVG 20010904//EN" "http://www.w3.org/TR/2001/REC-SVG-20010904/DTD/svg10.dtd">
<svg xmlns="http://www.w3.org/2000/svg" version="1.0" width="328.000000pt" height="463.000000pt" viewBox="0 0 328.000000 463.000000" preserveAspectRatio="xMidYMid meet">
<metadata>
Created by potrace 1.16, written by Peter Selinger 2001-2019
<meta name="Producer" content="Online-Convert"/></metadata>
<g transform="translate(0.000000,463.000000) scale(0.100000,-0.100000)" fill="#000000" stroke="none">
<path d="M18 2764 c2 -1603 4 -1839 17 -1864 8 -16 15 -38 15 -48 0 -11 7 -25 15 -32 8 -7 15 -18 15 -26 0 -25 83 -137 149 -200 96 -92 190 -139 316 -156 39 -5 180 -13 315 -17 186 -6 256 -12 293 -24 26 -10 54 -17 62 -17 21 0 161 -66 197 -92 78 -59 156 -141 178 -188 13 -27 27 -50 31 -50 4 0 25 25 46 56 21 31 51 72 67 90 49 58 256 184 302 184 7 0 35 7 61 16 36 13 108 19 293 25 354 12 426 25 543 99 26 16 52 30 57 30 22 0 153 175 193 257 l42 88 3 1840 c1 1012 0 1846 -3 1854 -4 10 -21 -1 -59 -35 -59 -54 -139 -115 -201 -155 -89 -57 -101 -64 -135 -80 -87 -40 -112 -49 -136 -49 -14 0 -35 -5 -47 -12 -75 -41 -352 -40 -482 2 -77 24 -204 82 -255 116 -28 19 -56 34 -62 34 -11 0 -38 20 -131 95 -34 28 -67 54 -74 58 -11 7 -96 -43 -109 -64 -22 -36 -318 -198 -427 -234 -69 -23 -177 -37 -282 -38 -155 0 -244 22 -390 94 -127 63 -149 75 -169 98 -11 12 -24 21 -30 21 -10 0 -61 40 -167 129 -20 17 -40 31 -45 31 -5 0 -8 -786 -6 -1836z m1671 1677 c25 -21 57 -44 71 -51 14 -7 48 -31 77 -52 29 -21 59 -38 66 -38 8 0 20 -7 27 -15 7 -8 20 -15 29 -15 9 0 22 -5 28 -11 6 -6 53 -25 104 -42 l94 -32 0 -400 0 -400 -560 0 -560 0 -3 397 -2 396 31 16 c18 9 41 16 52 16 40 0 355 166 376 198 12 17 94 72 109 72 8 0 35 -17 61 -39z m211 -1846 l0 -275 278 -2 277 -3 0 -275 0 -275 -277 -3 -278 -2 0 -268 c0 -147 -4 -273 -8 -280 -7 -9 -69 -12 -278 -10 l-269 3 -5 275 -5 275 -270 5 -270 5 0 275 0 275 270 5 270 5 3 260 c1 143 4 266 7 273 3 9 69 12 280 12 l275 0 0 -275z"/>
</g>
</svg>
